{
  "accessors": [
    {
      "bufferView": 1,
      "componentType": 5126,
      "count": 65532,
      "max": [
        0.7314037084579468,
        0.14053648710250854,
        1.4587520360946655
      ],
      "min": [
        -0.7313982248306274,
        -0.3282262980937958,
        -1.469400405883789
      ],
      "type": "VEC3"
    },
    {
      "bufferView": 1,
      "byteOffset": 786384,
      "componentType": 5126,
      "count": 65532,
      "max": [
        0.999996542930603,
        0.9999969601631165,
        0.9999117255210876
      ],
      "min": [
        -0.9999975562095642,
        -0.9999860525131226,
        -0.9999099969863892
      ],
      "type": "VEC3"
    },
    {
      "bufferView": 0,
      "componentType": 5125,
      "count": 308217,
      "type": "SCALAR"
    },
    {
      "bufferView": 1,
      "byteOffset": 1572768,
      "componentType": 5126,
      "count": 65532,
      "max": [
        0.7305698394775391,
        0.1394193023443222,
        1.438996434211731
      ],
      "min": [
        -0.7315322756767273,
        -0.32764530181884766,
        -1.4754951000213623
      ],
      "type": "VEC3"
    },
    {
      "bufferView": 1,
      "byteOffset": 2359152,
      "componentType": 5126,
      "count": 65532,
      "max": [
        0.9999806880950928,
        0.9999969601631165,
        0.9995632767677307
      ],
      "min": [
        -0.9999328851699829,
        -0.9999998807907104,
        -0.9999747276306152
      ],
      "type": "VEC3"
    },
    {
      "bufferView": 0,
      "byteOffset": 1232868,
      "componentType": 5125,
      "count": 314820,
      "type": "SCALAR"
    },
    {
      "bufferView": 1,
      "byteOffset": 3145536,
      "componentType": 5126,
      "count": 65532,
      "max": [
        0.7316993474960327,
        0.1400131732225418,
        1.4584938287734985
      ],
      "min": [
        -0.7316993474960327,
        -0.32785025238990784,
        -1.4735277891159058
      ],
      "type": "VEC3"
    },
    {
      "bufferView": 1,
      "byteOffset": 3931920,
      "componentType": 5126,
      "count": 65532,
      "max": [
        0.9999530911445618,
        0.9999741315841675,
        0.9995726346969604
      ],
      "min": [
        -0.9999526143074036,
        -0.9999904632568359,
        -0.9999507665634155
      ],
      "type": "VEC3"
    },
    {
      "bufferView": 0,
      "byteOffset": 2492148,
      "componentType": 5125,
      "count": 307206,
      "type": "SCALAR"
    },
    {
      "bufferView": 1,
      "byteOffset": 4718304,
      "componentType": 5126,
      "count": 37405,
      "max": [
        0.7311190366744995,
        0.14044204354286194,
        1.4587266445159912
      ],
      "min": [
        -0.7311147451400757,
        -0.3235030472278595,
        -1.4747308492660522
      ],
      "type": "VEC3"
    },
    {
      "bufferView": 1,
      "byteOffset": 5167164,
      "componentType": 5126,
      "count": 37405,
      "max": [
        0.999996542930603,
        0.999986469745636,
        0.9998732805252075
      ],
      "min": [
        -0.9999975562095642,
        -0.9999966621398926,
        -0.9999747276306152
      ],
      "type": "VEC3"
    },
    {
      "bufferView": 0,
      "byteOffset": 3720972,
      "componentType": 5125,
      "count": 93783,
      "type": "SCALAR"
    }
  ],
  "asset": {
    "extras": {
      "author": "Orthovasky (https://sketchfab.com/orthovasky)",
      "license": "CC-BY-4.0 (http://creativecommons.org/licenses/by/4.0/)",
      "source": "https://sketchfab.com/3d-models/human-male-body-free-downloadable-e1e7145d405b4eb5bf63817bd0185102",
      "title": "Human Male  Body - Free / Downloadable"
    },
    "generator": "Sketchfab-12.65.0",
    "version": "2.0"
  },
  "bufferViews": [
    {
      "buffer": 0,
      "byteLength": 4096104,
      "name": "floatBufferViews",
      "target": 34963
    },
    {
      "buffer": 0,
      "byteLength": 5616024,
      "byteOffset": 4096104,
      "byteStride": 12,
      "name": "floatBufferViews",
      "target": 34962
    }
  ],
  "buffers": [
    {
      "byteLength": 9712128,
      "uri": "scene.bin"
    }
  ],
  "materials": [
    {
      "doubleSided": true,
      "name": "material_0",
      "pbrMetallicRoughness": {
        "metallicFactor": 0.0,
        "roughnessFactor": 0.6
      }
    }
  ],
  "meshes": [
    {
      "name": "Object_0",
      "primitives": [
        {
          "attributes": {
            "NORMAL": 1,
            "POSITION": 0
          },
          "indices": 2,
          "material": 0,
          "mode": 4
        }
      ]
    },
    {
      "name": "Object_1",
      "primitives": [
        {
          "attributes": {
            "NORMAL": 4,
            "POSITION": 3
          },
          "indices": 5,
          "material": 0,
          "mode": 4
        }
      ]
    },
    {
      "name": "Object_2",
      "primitives": [
        {
          "attributes": {
            "NORMAL": 7,
            "POSITION": 6
          },
          "indices": 8,
          "material": 0,
          "mode": 4
        }
      ]
    },
    {
      "name": "Object_3",
      "primitives": [
        {
          "attributes": {
            "NORMAL": 10,
            "POSITION": 9
          },
          "indices": 11,
          "material": 0,
          "mode": 4
        }
      ]
    }
  ],
  "nodes": [
    {
      "children": [
        1
      ],
      "matrix": [
        1.0,
        0.0,
        0.0,
        0.0,
        0.0,
        2.220446049250313e-16,
        -1.0,
        0.0,
        0.0,
        1.0,
        2.220446049250313e-16,
        0.0,
        0.0,
        0.0,
        0.0,
        1.0
      ],
      "name": "Sketchfab_model"
    },
    {
      "children": [
        2,
        3,
        4,
        5
      ],
      "name": "HUman.OBJ.cleaner.materialmerger.gles"
    },
    {
      "mesh": 0,
      "name": "Object_2"
    },
    {
      "mesh": 1,
      "name": "Object_3"
    },
    {
      "mesh": 2,
      "name": "Object_4"
    },
    {
      "mesh": 3,
      "name": "Object_5"
    }
  ],
  "scene": 0,
  "scenes": [
    {
      "name": "Sketchfab_Scene",
      "nodes": [
        0
      ]
    }
  ]
}
